<svg xmlns="http://www.w3.org/2000/svg" viewBox="0 0 48 48" role="img" aria-label="Docker">
  <rect width="48" height="48" rx="10" fill="#2496ED" />
  <g fill="#ffffff" transform="translate(7, 12)">
    <rect x="0" y="8" width="5" height="4" rx="0.5" />
    <rect x="6" y="8" width="5" height="4" rx="0.5" />
    <rect x="12" y="8" width="5" height="4" rx="0.5" />
    <rect x="6" y="3" width="5" height="4" rx="0.5" />
    <rect x="12" y="3" width="5" height="4" rx="0.5" />
    <rect x="18" y="8" width="5" height="4" rx="0.5" />
    <rect x="0" y="13" width="5" height="4" rx="0.5" />
    <rect x="6" y="13" width="5" height="4" rx="0.5" />
    <rect x="12" y="13" width="5" height="4" rx="0.5" />
    <path
      d="M24 11c-2.2 0-4.2 1.1-5.4 2.8-.3.1-.6.3-.9.5l.7 3.2c.1.4.5.7.9.7h12.7c.5 0 .9-.4.9-.9v-2.1c0-.5-.4-.9-.9-.9H24z"
    />
    <path
      d="M31 12.5c2.4 1.2 4 3.6 4.2 6.4.1 1.2-.7 2.2-1.9 2.3-4.8.4-8.8.2-12.2-.6-1.1-.3-1.8-1.3-1.7-2.4.2-2.2 1.5-4.1 3.4-5.3.4-.2.8-.4 1.2-.4H31z"
      opacity="0.95"
    />
  </g>
</svg>
